<svg width="74" height="74" viewBox="0 0 74 74" fill="none" xmlns="http://www.w3.org/2000/svg">
<path d="M8.79883 51.3885C8.84096 47.6948 9.59233 44.1767 10.9266 40.9535C7.28203 39.4718 3.6375 37.9831 0 36.4944V51.7045C2.90017 51.7045 5.80736 51.7045 8.70754 51.7045C8.73563 51.5991 8.76371 51.4938 8.79883 51.3885Z" fill="#F49C19"/>
<path d="M21.4107 28.2643C15.6104 21.6354 9.81002 15.0064 4.00968 8.37744C1.48871 11.7832 0 15.9825 0 20.5188V32.8077C4.10097 34.5703 8.20194 36.3328 12.3099 38.0954C14.5079 34.1279 17.6398 30.7572 21.4107 28.2643Z" fill="#F49C19"/>
<path d="M35.0064 23.6929C35.0907 15.7929 35.175 7.89998 35.2592 0H20.5196C15.1055 0 10.1689 2.12773 6.48926 5.58968C12.5635 12.5206 18.6377 19.4515 24.7119 26.3895C27.8578 24.8656 31.3338 23.9317 35.0064 23.6929Z" fill="#F49C19"/>
<path d="M64.941 51.2481C64.9832 51.4026 65.0323 51.55 65.0744 51.7045C68.0448 51.7045 71.0223 51.7045 73.9926 51.7045V36.4102C70.2709 37.934 66.5421 39.4508 62.8203 40.9746C64.1405 44.1486 64.8848 47.6106 64.941 51.2481Z" fill="#F49C19"/>
<path d="M61.4449 38.1095C65.6302 36.3118 69.8154 34.5141 74.0007 32.7164V20.5188C74.0007 15.9263 72.4698 11.6709 69.8997 8.24402C64.0572 14.9221 58.2077 21.6003 52.3652 28.2784C56.1221 30.7713 59.247 34.1489 61.4449 38.1095Z" fill="#F49C19"/>
<path d="M49.0647 26.3965C55.1741 19.4234 61.2834 12.4504 67.3927 5.4703C63.7271 2.0856 58.8397 0 53.4817 0H38.5244C38.6087 7.89998 38.6929 15.7929 38.7772 23.6929C42.4428 23.9387 45.9188 24.8797 49.0647 26.3965Z" fill="#F49C19"/>
<path d="M69.3088 66.5005H4.69043C8.46135 71.0719 14.1634 74.0002 20.5185 74.0002H53.4807C59.8288 74.0002 65.5378 71.0719 69.3088 66.5005Z" fill="#516DB5"/>
<path d="M47.0558 56.1496V47.5685C47.0558 47.0489 46.782 46.5714 46.3326 46.3115C44.5981 45.3074 40.1741 42.7443 37.7795 41.3117C36.8666 40.764 35.736 40.771 34.8232 41.3187L26.4597 46.3466C26.0595 46.5854 25.8137 47.0208 25.8137 47.4842V56.1567H0.182617C0.498616 58.5442 1.2219 60.7983 2.28928 62.8559H71.7178C72.7852 60.7983 73.5085 58.5372 73.8245 56.1567H47.0558V56.1496Z" fill="#3C702C"/>
<path d="M40.7078 37.0913C43.1586 38.5589 47.8213 41.2625 49.1907 42.056C51.1499 43.1936 52.3647 45.3073 52.3647 47.5684V52.5401H61.3953C61.3953 39.4226 50.6021 28.6295 37.4846 28.6295C24.3672 28.6295 13.5811 39.4156 13.5811 52.5331H21.3055V47.4771C21.3055 45.3002 22.4641 43.2498 24.3321 42.1262L32.6955 37.0983C35.1673 35.6166 38.236 35.6096 40.7078 37.0913Z" fill="#EC5B15"/>
</svg>
