<svg width="74" height="74" viewBox="0 0 74 74" fill="none" xmlns="http://www.w3.org/2000/svg">
<path d="M1.43555 62.4058C4.26387 69.1881 10.9758 73.9864 18.7572 73.9864H22.1977L26.5598 62.4058H1.43555Z" fill="#3C702C"/>
<path d="M14.1557 50.7339C14.1557 50.7198 14.1557 50.6987 14.1557 50.6846H14.1486C12.4531 50.7057 10.7504 50.7057 9.05485 50.7057C7.74622 50.7057 6.44463 50.7057 5.136 50.7128C4.10177 50.7198 3.42635 50.3399 3.01125 49.5449L2.92682 49.3901V48.4192L2.9831 48.2855C3.48967 47.0894 3.89773 45.823 4.28469 44.5918C4.43948 44.0993 4.6013 43.6138 4.76312 43.1213C6.95119 36.5852 9.13224 30.0491 11.3062 23.5131L14.0994 15.1407C14.226 14.7467 14.4019 14.212 14.9507 13.8672C15.4221 13.5647 15.9568 13.4943 16.4493 13.6702C16.991 13.8602 17.4061 14.3105 17.6172 14.9437C18.1519 16.5196 18.6796 18.0956 19.2072 19.6716L20.2767 22.8728L21.7612 18.4263C22.7391 15.5065 23.71 12.5867 24.681 9.65991C24.8076 9.27295 25.082 8.46385 25.9755 8.1965C26.9464 7.90804 27.847 8.43571 28.2128 9.51216C28.7546 11.1163 29.2963 12.7274 29.831 14.3386L30.0984 15.1336C30.1899 14.8522 30.2884 14.5778 30.3798 14.3034L35.15 0H18.757C8.44275 0 0 8.44275 0 18.757V53.2456H14.1486C14.1557 52.4084 14.1486 51.5711 14.1557 50.7339Z" fill="#2C6D5C"/>
<path d="M42.136 9.48402C42.7692 11.3696 43.3953 13.2621 44.0285 15.1477L45.8437 9.70212C45.8789 9.59659 45.9141 9.48402 45.9493 9.37848C46.3573 8.33018 47.1594 8.15429 47.6026 8.14725C48.4328 8.13318 49.066 8.59049 49.3475 9.41366C49.7274 10.5323 50.1003 11.658 50.4732 12.7837L53.8432 22.8728L56.3338 15.4221C56.3901 15.2392 56.4534 15.0633 56.5168 14.8803C56.8123 14.0501 57.4314 13.6069 58.2405 13.6069C59.0566 13.6139 59.6617 14.0783 59.9431 14.9155L60.4215 16.3438C60.7241 17.2443 61.0266 18.1449 61.3291 19.0525L70.9398 47.8915C71.0524 48.2222 71.3901 49.2423 70.8554 49.9811C70.3277 50.7128 69.2794 50.7128 68.9346 50.7128H66.7114C64.5092 50.7198 62.2227 50.7198 59.9853 50.6917H59.9783C59.9783 50.7057 59.9783 50.7198 59.9783 50.7409C59.9853 51.5781 59.9783 52.4154 59.9853 53.2526H74.0003V18.757C73.9933 8.44275 65.5505 0 55.2363 0H38.9629C39.3921 1.30159 39.8283 2.59614 40.2645 3.8907L42.136 9.48402Z" fill="#2C6D5C"/>
<path d="M45.8093 56.0599V46.5196C44.5148 45.7879 40.0612 43.2058 37.7113 41.7987C37.2962 41.5525 36.7756 41.5525 36.3605 41.7987L28.5087 46.5196V56.0599H0.0214844C0.0777694 57.27 0.246624 58.452 0.521014 59.5918H27.6152H46.4566H73.4663C73.7407 58.452 73.9096 57.27 73.9659 56.0599H45.8093Z" fill="#5E3F32"/>
<path d="M30.8008 63.1096L26.7061 73.9937H47.1445L43.2327 63.1096H30.8008Z" fill="#F49C19"/>
<path d="M14.1501 42.7274V41.4891V41.3836C14.143 41.1021 14.143 40.68 14.4174 40.2719C14.8747 39.6035 15.5853 39.3291 16.3663 39.5332C17.1754 39.7372 17.6538 40.3986 17.6608 41.2921V42.0449C17.6679 43.7616 17.6679 45.4712 17.6538 47.1879C17.9212 47.1739 18.1744 47.1668 18.4277 47.1668C18.7443 47.1668 19.0469 47.1809 19.3423 47.202C19.3635 47.202 19.3846 47.202 19.3986 47.202C19.4127 47.1809 19.4197 47.1457 19.4408 47.0965C20.3273 44.3455 21.0942 42.066 21.84 39.9131C21.9877 39.491 21.9948 39.1744 21.8681 38.7944C20.4399 34.5379 19.0187 30.2743 17.5975 26.0107L15.9864 21.1843C15.9582 21.1069 15.9371 21.0295 15.909 20.9451L14.5792 24.9343C12.1027 32.3498 9.62615 39.7724 7.14258 47.1879C9.39398 47.1809 11.772 47.1739 14.1571 47.195C14.143 45.7034 14.143 44.2189 14.1501 42.7274Z" fill="#14662D"/>
<path d="M51.6278 73.9935H55.2371C63.0114 73.9935 69.7234 69.1952 72.5588 62.4128H47.4697L51.6278 73.9935Z" fill="#3C702C"/>
<path d="M17.6523 50.6846C17.6594 51.5359 17.6523 52.3872 17.6594 53.2455H25.6941V50.6846H25.6026H22.711C21.0224 50.6916 19.3339 50.6916 17.6523 50.6846Z" fill="#3C702C"/>
<path d="M23.8999 33.6023L24.4416 31.9911C25.6869 28.2833 26.9252 24.5826 28.1775 20.8819C28.2057 20.7904 28.2127 20.713 28.1424 20.516L27.5021 18.5883C27.1644 17.5751 26.8267 16.562 26.489 15.5559L26.292 16.1539C24.9341 20.2346 23.5692 24.3153 22.2113 28.3959C22.1902 28.4592 22.1973 28.4733 22.2043 28.5155C22.7601 30.19 23.323 31.8715 23.8999 33.6023Z" fill="#085629"/>
<path d="M48.8632 50.6846H48.624V53.2455H56.4687C56.4687 52.3942 56.4687 51.5429 56.4758 50.6846C54.8857 50.6916 53.2957 50.6916 51.7127 50.6846H48.8632Z" fill="#3C702C"/>
<path d="M52.2604 39.8498C53.0836 42.2771 53.8997 44.7044 54.7017 47.1387C54.7088 47.1598 54.7158 47.1809 54.7229 47.195C55.3279 47.1598 55.9189 47.1528 56.4818 47.1879C56.4607 45.7527 56.4607 44.3104 56.4677 42.8751V41.5735C56.4677 40.8277 56.6436 40.293 57.0094 39.9342C57.319 39.6317 57.7341 39.498 58.2547 39.4839C58.895 39.491 59.9785 39.7724 59.9785 41.5383L59.9855 42.9244C59.9925 44.2893 59.9996 45.7034 59.9714 47.1035C59.9714 47.1387 59.9714 47.1739 59.9714 47.202C59.9925 47.202 60.0207 47.202 60.0488 47.202C61.7514 47.1739 63.447 47.1809 65.1496 47.1809H66.9789L58.5713 21.9863C58.4588 21.6416 58.3392 21.2898 58.2196 20.9451L52.1408 39.1533C52.1126 39.2447 52.0915 39.3643 52.1689 39.5965L52.2604 39.8498Z" fill="#14662D"/>
<path d="M49.1874 30.4785C49.5322 31.5057 49.8769 32.5258 50.2287 33.5882L50.2709 33.4545C50.7845 31.9137 51.2981 30.3729 51.8188 28.8321C51.9173 28.5437 51.9173 28.3537 51.8328 28.1004C51.1785 26.1797 50.5453 24.259 49.9051 22.3312L49.0115 19.6366C48.5613 18.2928 48.111 16.956 47.6396 15.5559C47.0627 17.2937 46.5139 18.9611 45.944 20.6145C45.9088 20.7201 45.9299 20.7974 46.0144 21.0718L49.1874 30.4785Z" fill="#085629"/>
<path d="M24.2247 47.2093H25.3786H25.4489H25.6881V46.4353C25.6881 45.5066 26.1806 44.6272 26.9827 44.1488L34.9048 39.3856C35.0385 39.3083 35.1721 39.2379 35.3128 39.1746V38.7173C35.3128 38.5273 35.3128 38.3373 35.3128 38.1403C35.3128 38.1052 35.3058 38.07 35.2988 38.0348C35.2777 37.9715 35.2355 37.9011 35.1299 37.7815C33.4766 36.0508 31.8232 34.313 30.1839 32.5681C29.7477 32.1038 29.5225 31.555 29.5507 31.0203C29.5718 30.563 29.7899 30.1408 30.1487 29.8313C30.9226 29.1699 31.9569 29.3036 32.78 30.1831C33.6173 31.0766 34.4615 31.9701 35.3058 32.8636V32.1601C35.3058 30.2956 35.3058 28.4312 35.3058 26.5597C35.3058 25.9828 35.4536 25.5044 35.735 25.1526C36.0446 24.7656 36.5089 24.5546 37.0436 24.5546C37.0436 24.5546 37.0436 24.5546 37.0506 24.5546C38.099 24.5546 38.7814 25.3425 38.7884 26.5597C38.7884 28.0231 38.7884 29.4936 38.7884 30.957V32.8918C39.0488 32.6174 39.302 32.343 39.5553 32.0756C39.7734 31.8435 39.9915 31.6042 40.2096 31.365C40.6247 30.9077 41.0469 30.4504 41.4761 30.0142C42.2148 29.2614 43.235 29.1981 43.9667 29.8524C44.6632 30.4715 44.7195 31.5128 44.1074 32.3289C44.0018 32.4696 43.8822 32.5963 43.7626 32.7229L42.651 33.9119C41.4268 35.2206 40.2026 36.5221 38.9714 37.8237C38.9081 37.8941 38.8658 37.9504 38.8377 38.0207C38.7955 38.1052 38.7744 38.1966 38.7744 38.3233L38.7814 39.1886C38.9081 39.2449 39.0277 39.3012 39.1473 39.3786C41.4831 40.7787 45.9226 43.3537 47.2312 44.1065C48.0895 44.599 48.6172 45.5207 48.6172 46.5127V47.2093H48.9338H49.0605H50.0173C50.348 47.2093 50.6786 47.2093 51.0093 47.2093C49.2082 41.8481 47.4141 36.487 45.6271 31.1258L42.9254 23.0349C40.9695 17.1742 39.0136 11.3065 37.0506 5.4458L23.1201 47.2093C23.486 47.2093 23.8589 47.2093 24.2247 47.2093Z" fill="#14662D"/>
</svg>
