<svg width="74" height="74" viewBox="0 0 74 74" fill="none" xmlns="http://www.w3.org/2000/svg">
<path d="M55.2362 73.993H18.7568C8.44267 73.993 0 65.5503 0 55.2362V18.7568C0 8.44267 8.44267 0 18.7568 0H55.2362C65.5503 0 73.993 8.44267 73.993 18.7568V55.2362C73.993 65.5503 65.5503 73.993 55.2362 73.993Z" fill="white"/>
<path d="M10.6659 17.9125C14.2189 18.3839 17.413 20.2765 19.6996 23.0907C20.4242 20.2906 21.7962 17.6663 23.738 15.4782C26.8969 11.9112 31.2871 9.78646 35.7758 9.65279C43.3601 9.44876 50.2691 14.6691 52.6752 22.1479C56.2352 20.5579 63.3833 18.3487 70.7425 21.7821C71.9527 22.3449 73.0221 23.0133 73.9859 23.7169V18.7568C73.993 8.44267 65.5503 0 55.2362 0H18.7568C8.44267 0 0 8.44267 0 18.7568V21.0785C3.00418 18.6583 6.81042 17.406 10.6659 17.9125Z" fill="#A6D1FF"/>
<path d="M18.7571 73.9932H55.2364C62.9826 73.9932 69.6664 69.2371 72.5228 62.4971H1.4707C4.32714 69.2301 11.0109 73.9932 18.7571 73.9932Z" fill="#5F91FF"/>
<path d="M2.04735 40.1519C2.04735 39.0825 2.61723 38.0835 3.53185 37.5347L11.5172 32.7364C12.9525 31.8711 14.7395 31.8711 16.1747 32.7294C18.4191 34.0732 22.6193 36.5075 24.3149 37.4925C25.131 37.9639 25.6868 38.773 25.8486 39.6876V37.007C25.8486 35.9376 26.4185 34.9386 27.3331 34.3898L35.3185 29.5916C36.7538 28.7262 38.5408 28.7262 39.976 29.5845C42.2133 30.9213 46.4136 33.3626 48.1162 34.3476C49.0941 34.9104 49.6992 35.9658 49.6992 37.0915V41.5098H50.1495V35.016C50.1495 33.9466 50.7193 32.9475 51.634 32.3987L59.6193 27.6005C61.0546 26.7351 62.8416 26.7351 64.2769 27.5935C66.5212 28.9372 70.7214 31.3715 72.417 32.3565C73.3949 32.9194 74 33.9747 74 35.1004V28.3744C72.7829 27.1291 71.235 25.8979 69.2651 24.9833C61.3219 21.2755 53.3014 25.722 52.4149 26.2356L50.262 27.495L49.7977 25.0466C48.468 18.0743 42.5018 12.9736 35.8813 13.1706C32.3565 13.2761 28.895 14.9646 26.3693 17.814C23.6184 20.9167 22.3098 24.9199 22.6897 29.0709L19.2493 29.7182C17.9759 25.2928 14.3455 21.9509 10.2086 21.4022C6.28275 20.8815 2.40616 22.8093 0 26.1019V46.6457H2.04735V40.1519Z" fill="#3C702C"/>
<path d="M22.3168 53.0409V49.896H46.1181V47.8979H70.4189V35.3254C68.6037 34.2701 64.6146 31.9624 62.4335 30.6538C62.131 30.4709 61.7581 30.4709 61.4486 30.6538L53.7165 35.3043V45.0767H46.1181V37.3165C43.9582 36.0641 40.2434 33.9042 38.1327 32.6449C37.8302 32.4619 37.4573 32.4619 37.1477 32.6449L29.4157 37.2954V47.0678H22.3168V40.4614C20.5016 39.406 16.5125 37.0984 14.3314 35.7898C14.0289 35.6068 13.656 35.6068 13.3465 35.7898L5.62141 40.4473V50.2197H0V53.048H22.3168V53.0409Z" fill="#F49C19"/>
<path d="M73.9933 55.236V51.479H49.6925V53.4701H25.8912V56.615H0.0566406C0.112925 57.417 0.218458 58.205 0.380276 58.9789H73.6134C73.8596 57.7688 73.9933 56.5165 73.9933 55.236Z" fill="#756F6D"/>
</svg>
