<svg width="31" height="25" viewBox="0 0 31 25" fill="none" xmlns="http://www.w3.org/2000/svg">
<path d="M16.0148 24.3468C13.6414 24.3468 11.267 24.3477 8.89362 24.3468C4.54115 24.344 0.911787 21.3039 0.137891 17.0142C-0.603682 12.9064 1.706 8.79408 5.61888 7.26938C5.8553 7.17703 5.96981 7.04496 6.05662 6.80485C7.43449 3.01018 10.1163 0.704192 14.104 0.109456C19.3985 -0.680139 24.3152 2.88458 25.2756 8.14393C25.4132 8.89474 25.6635 9.24475 26.3802 9.54858C29.436 10.8433 31.2147 13.8918 30.9792 17.2247C30.7252 20.8209 27.8328 23.85 24.2376 24.2803C23.907 24.32 23.5727 24.344 23.2402 24.344C20.8317 24.3496 18.4233 24.3468 16.0148 24.3468ZM13.2849 13.2851C12.5304 13.2851 11.8276 13.2777 11.1257 13.2878C10.6363 13.2952 10.2586 13.5104 10.0609 13.9731C9.87438 14.4108 9.96212 14.8236 10.2881 15.1524C11.7629 16.642 13.2442 18.1261 14.7357 19.6C15.1781 20.0368 15.8153 20.0405 16.2595 19.6018C17.7509 18.1288 19.2313 16.6439 20.7071 15.1552C20.9694 14.891 21.0866 14.5558 20.9952 14.1735C20.8613 13.6148 20.4513 13.2934 19.8381 13.2869C19.139 13.2795 18.4399 13.2851 17.7122 13.2851C17.7122 13.1466 17.7122 13.0459 17.7122 12.9443C17.7122 11.5849 17.726 10.2255 17.7066 8.86704C17.69 7.66648 16.8044 6.74575 15.6204 6.6534C14.5298 6.56844 13.5084 7.37004 13.3403 8.52534C13.2516 9.13485 13.2913 9.76468 13.2867 10.3862C13.2803 11.3383 13.2849 12.2923 13.2849 13.2851Z" fill="#F59E11"/>
<path d="M13.2852 13.2851C13.2852 12.2924 13.2806 11.3384 13.287 10.3853C13.2917 9.76473 13.252 9.1349 13.3406 8.52446C13.5087 7.37008 14.5301 6.56756 15.6207 6.65252C16.8047 6.74487 17.6903 7.66561 17.7069 8.86616C17.7263 10.2246 17.7116 11.584 17.7125 12.9434C17.7125 13.0441 17.7125 13.1457 17.7125 13.2842C18.4402 13.2842 19.1393 13.2787 19.8384 13.286C20.4516 13.2925 20.8616 13.6139 20.9955 14.1726C21.087 14.5549 20.9697 14.8902 20.7074 15.1543C19.2316 16.643 17.7513 18.128 16.2598 19.601C15.8156 20.0396 15.1784 20.0359 14.736 19.5991C13.2455 18.1252 11.7633 16.6421 10.2884 15.1515C9.96336 14.8228 9.8747 14.4099 10.0612 13.9722C10.2589 13.5095 10.6366 13.2944 11.126 13.287C11.8288 13.2768 12.5307 13.2851 13.2852 13.2851Z" fill="white"/>
</svg>
