<svg width="45" height="45" viewBox="0 0 45 45" fill="none" xmlns="http://www.w3.org/2000/svg">
<circle cx="22.0807" cy="22.0812" r="21.4673" stroke="#212121" stroke-width="1.2267"/>
<path d="M29.7231 18.7058C27.7044 17.0143 25.6464 15.3706 23.5956 13.7196C22.4318 12.783 20.6136 12.7526 19.4625 13.6757C17.3646 15.3571 15.2673 17.0413 13.2116 18.775C12.246 19.5896 11.8551 20.718 12.0478 21.9865C12.4015 24.3137 12.8229 26.6301 13.1728 28.9584C13.448 30.7911 15.0652 32.0428 16.6964 31.9989C18.2909 31.9561 19.8872 31.9899 21.4828 31.9893C23.1405 31.9893 24.7982 31.9949 26.4559 31.9876C28.0593 31.9803 29.531 30.7084 29.7967 29.1103C30.1815 26.795 30.5719 24.4807 30.9412 22.1631C31.1588 20.7928 30.7773 19.5896 29.7231 18.7058ZM23.5403 27.2467C23.5403 28.3869 22.6223 29.3196 21.5 29.3196C20.3777 29.3196 19.4597 28.3869 19.4597 27.2467V25.5675C19.4597 24.4273 20.3777 23.4946 21.5 23.4946C22.6223 23.4946 23.5403 24.4273 23.5403 25.5675V27.2467Z" fill="black"/>
</svg>
