<svg width="16" height="17" viewBox="0 0 16 17" fill="none" xmlns="http://www.w3.org/2000/svg">
<path d="M1.37202 8.94635C0.399309 8.20875 0.503187 6.68622 1.58874 6.12827C2.85659 5.47654 4.14369 4.86296 5.42294 4.23349C8.01406 2.95851 10.6067 1.6863 13.1965 0.408229C13.7126 0.153702 14.2312 0.102937 14.7553 0.358161C15.4861 0.713269 15.8393 1.42607 15.6908 2.23168C15.4693 3.43578 15.2413 4.63866 15.0157 5.84181C14.4515 8.85464 13.8866 11.8675 13.3226 14.88C13.1874 15.6026 12.7748 16.077 12.0597 16.2651C11.338 16.455 10.5942 16.1606 10.2175 15.5152C9.57868 14.4214 8.95997 13.3156 8.33306 12.2151C8.20225 11.985 8.07337 11.7538 7.93922 11.5254C7.57292 10.9015 7.03606 10.5064 6.33462 10.3315C4.91474 9.97709 3.4941 9.62579 2.07651 9.26218C1.8291 9.19877 1.59589 9.08078 1.35605 8.98809C1.36121 8.9737 1.36645 8.9599 1.37202 8.94635Z" fill="white"/>
</svg>
