<svg width="27" height="27" viewBox="0 0 27 27" fill="none" xmlns="http://www.w3.org/2000/svg">
<mask id="mask0_282_436" style="mask-type:luminance" maskUnits="userSpaceOnUse" x="0" y="0" width="27" height="27">
<path d="M20.5758 0.5H6.92424C3.37623 0.5 0.5 3.37623 0.5 6.92424V20.5758C0.5 24.1238 3.37623 27 6.92424 27H20.5758C24.1238 27 27 24.1238 27 20.5758V6.92424C27 3.37623 24.1238 0.5 20.5758 0.5Z" fill="white"/>
</mask>
<g mask="url(#mask0_282_436)">
<path d="M27 0.5H0.5V27H27V0.5Z" fill="#100943"/>
<path d="M27 13.75C34.3178 13.75 40.25 7.81778 40.25 0.500007C40.25 -6.81777 34.3178 -12.75 27 -12.75C19.6822 -12.75 13.75 -6.81777 13.75 0.500007C13.75 7.81778 19.6822 13.75 27 13.75Z" fill="#ED143B"/>
<path d="M16.868 13.145H9.039V10.047H16.868C17.3253 10.047 17.6433 10.1267 17.8029 10.2659C17.9625 10.4051 18.0613 10.6633 18.0613 11.0404V12.1528C18.0613 12.5502 17.9625 12.8083 17.8029 12.9475C17.6433 13.0867 17.3253 13.1462 16.868 13.1462V13.145ZM17.4052 7.12618H5.71875V20.375H9.039V16.0646H15.1579L18.0613 20.375H21.7794L18.5782 16.0444C19.7584 15.8695 20.2883 15.5078 20.7254 14.9118C21.1624 14.3157 21.3817 13.3627 21.3817 12.0909V11.0975C21.3817 10.3432 21.3018 9.74716 21.1624 9.29031C21.0231 8.83345 20.785 8.43609 20.4467 8.07916C20.0895 7.74129 19.6917 7.50333 19.2141 7.34391C18.7366 7.20472 18.1399 7.125 17.4052 7.125V7.12618Z" fill="white"/>
</g>
</svg>
