<svg width="1136" height="456" viewBox="0 0 1136 456" fill="none" xmlns="http://www.w3.org/2000/svg">
<path d="M849.682 86.2178L848.372 88.4121L706.973 4.10059L706.584 3.86816L706.197 4.10547L566.965 89.501L423.742 4.10059L423.353 3.86816L422.966 4.10547L283.734 89.501L140.512 4.10059L140.122 3.86816L139.735 4.10547L2.36426 88.3477L1.03223 86.1846L140.112 0.875977L283.336 86.2773L283.726 86.5098L284.111 86.2725L423.343 0.875977L566.566 86.2773L566.956 86.5098L567.343 86.2725L706.573 0.875977L849.682 86.2178Z" fill="#A9A9A9" stroke="white" stroke-width="1.5"/>
<path d="M849.682 159.531L848.372 161.725L706.973 77.4133L706.584 77.1809L706.197 77.4182L566.965 162.814L423.742 77.4133L423.353 77.1809L422.966 77.4182L283.734 162.814L140.512 77.4133L140.122 77.1809L139.735 77.4182L2.36426 161.66L1.03223 159.497L140.112 74.1887L283.336 159.59L283.726 159.823L284.111 159.585L423.343 74.1887L566.566 159.59L566.956 159.823L567.343 159.585L706.573 74.1887L849.682 159.531Z" fill="#A9A9A9" stroke="white" stroke-width="1.5"/>
<path d="M1134.95 306.155L1133.64 308.349L992.241 224.038L991.852 223.805L991.465 224.042L852.233 309.438L709.011 224.038L708.621 223.805L708.234 224.042L568.004 310.049L423.742 224.038L423.353 223.805L422.966 224.042L285.595 308.285L284.263 306.122L423.343 220.813L567.585 306.825L567.975 307.057L568.361 306.82L708.61 220.813L851.834 306.214L852.224 306.447L852.61 306.209L991.841 220.813L1134.95 306.155Z" fill="#A9A9A9" stroke="white" stroke-width="1.5"/>
<path d="M849.682 232.842L848.372 235.037L706.973 150.725L706.583 150.493L706.196 150.73L566.965 236.125L423.742 150.725L423.353 150.493L422.966 150.73L285.595 234.972L284.263 232.809L423.343 147.5L566.566 232.902L566.955 233.134L567.342 232.897L706.573 147.5L849.682 232.842Z" fill="#A9A9A9" stroke="white" stroke-width="1.5"/>
<path d="M1134.95 379.468L1133.64 381.662L992.24 297.35L991.851 297.118L991.464 297.355L852.232 382.751L709.01 297.35L708.62 297.118L708.233 297.355L570.863 381.598L569.53 379.434L708.61 294.126L851.834 379.527L852.223 379.76L852.609 379.522L991.841 294.126L1134.95 379.468Z" fill="#A9A9A9" stroke="white" stroke-width="1.5"/>
<path d="M1134.95 452.779L1133.64 454.975L992.24 370.662L991.851 370.43L991.464 370.667L854.094 454.91L852.761 452.746L991.841 367.438L1134.95 452.779Z" fill="#A9A9A9" stroke="white" stroke-width="1.5"/>
</svg>
