<svg width="107" height="107" viewBox="0 0 107 107" fill="none" xmlns="http://www.w3.org/2000/svg">
<path d="M90.9492 0C99.8124 0 107 7.18759 107 16.0508V90.9492C107 99.8124 99.8124 107 90.9492 107H16.0508C7.18759 107 0 99.8124 0 90.9492V16.0508C0 7.18759 7.18759 0 16.0508 0H90.9492ZM59.1133 80.0107C59.0755 80.6069 58.9919 80.9318 58.7051 81.1582H58.4189V82.917H59.4004V82.0566H62.042V82.917H63.0234V81.1582H62.4883V77.6777H59.2568L59.1133 80.0107ZM26.8467 77.5723C25.6577 77.5723 24.8797 78.3281 24.7871 79.6045L24.7773 79.8818C24.7773 81.3163 25.7822 82.1768 26.8467 82.1768C27.9108 82.1766 28.6656 81.4977 28.7715 80.5166H27.707C27.6013 80.9693 27.4195 81.2559 26.8232 81.2559C26.2346 81.2556 25.8652 80.7423 25.8652 79.8818C25.8653 79.0215 26.3704 78.5081 26.8232 78.5078C27.2762 78.5078 27.624 78.7951 27.707 79.248H28.7715C28.6884 78.2667 28.1147 77.5724 26.8467 77.5723ZM54.9531 77.5723C53.7643 77.5724 52.9872 78.3283 52.8945 79.6045L52.8848 79.8818C52.8848 81.3161 53.8887 82.1766 54.9531 82.1768C56.0175 82.1768 56.773 81.4978 56.8789 80.5166H55.8145C55.7087 80.9694 55.5269 81.2559 54.9307 81.2559C54.3418 81.2558 53.9717 80.7425 53.9717 79.8818C53.9717 79.0213 54.4777 78.5079 54.9307 78.5078C55.3836 78.5078 55.7314 78.7951 55.8145 79.248H56.8789C56.7959 78.2666 56.2215 77.5723 54.9531 77.5723ZM39.0918 77.5947C37.8008 77.5947 36.9854 78.4554 36.9854 79.8672C36.9855 81.2787 37.8009 82.1396 39.0918 82.1396C40.3826 82.1396 41.1981 81.2561 41.1982 79.8672C41.1982 78.4781 40.3752 77.5947 39.0918 77.5947ZM75.6162 77.5947C74.3253 77.5948 73.5098 78.4555 73.5098 79.8672C73.5099 81.2787 74.3254 82.1396 75.6162 82.1396C76.9071 82.1396 77.7225 81.2561 77.7227 79.8672C77.7227 78.4781 76.8996 77.5947 75.6162 77.5947ZM64.5938 80.9238C64.4503 81.135 64.2241 81.1729 64.043 81.1729C63.8618 81.1728 63.7783 81.1504 63.7783 81.1504V82.0332C63.7637 82.0349 63.3873 82.0791 64.2168 82.0791C65.0622 82.0791 65.4701 81.626 65.8174 80.7881L67.123 77.6553H65.9756L65.1982 79.8896H65.1758L64.3525 77.6553H63.2051L64.5938 80.9238ZM29.0586 78.5762H30.2432V82.0566H31.3311V78.5762H32.5156V77.6777H29.0586V78.5762ZM33.0977 82.0566H34.1846V80.7656H34.9014C35.8451 80.7656 36.502 80.1761 36.502 79.2324C36.5019 78.2889 35.8907 77.6777 34.9697 77.6777H33.0977V82.0566ZM41.7871 82.0566H42.8359L44.5723 79.376H44.6182V82.0566H45.6973V77.6777H44.6553L42.9121 80.3574H42.874V77.6777H41.7871V82.0566ZM46.3926 82.0566H47.3584V79.3154H47.3809L48.4229 81.9961H49.0576L50.0986 79.3154H50.1221V82.0566H51.0801V77.6777H49.835L48.748 80.4785H48.7324L47.6455 77.6777H46.3926V82.0566ZM67.584 82.0566H72.9062V77.6777H71.8262V81.1582H70.7773V77.6777H69.7129V81.1582H68.6709V77.6777H67.584V82.0566ZM78.3193 77.6777V82.0566H79.3613L81.0977 79.376H81.1201V82.0566H82.207V77.6777H81.165L79.4287 80.3574H79.4062V77.6777H78.3193ZM39.084 78.4932C39.6955 78.4932 40.0879 79.0518 40.0879 79.8672C40.0878 80.6899 39.6954 81.2178 39.084 81.2178C38.4652 81.2176 38.0802 80.7049 38.0801 79.8672C38.0801 79.0293 38.4726 78.4933 39.084 78.4932ZM75.6084 78.4932C76.2199 78.4932 76.6133 79.0518 76.6133 79.8672C76.6132 80.6899 76.2198 81.2178 75.6084 81.2178C74.9897 81.2176 74.6046 80.7048 74.6045 79.8672C74.6045 79.0294 74.9971 78.4934 75.6084 78.4932ZM61.4004 81.1582C61.3758 81.1582 59.8232 81.1572 59.8232 81.1348C59.9891 80.9309 60.0721 80.6063 60.0947 80.1084L60.1924 78.5762H61.4004V81.1582ZM34.6826 78.5381C35.1582 78.5381 35.4228 78.7796 35.4229 79.2324C35.4229 79.6854 35.1507 79.9268 34.6826 79.9268H34.1924V78.5381H34.6826ZM79.1797 76.4844C79.1797 77.0807 79.6327 77.451 80.2666 77.4512C80.9008 77.4512 81.3545 77.0808 81.3545 76.4844H80.7422C80.7422 76.7713 80.5387 76.9375 80.2744 76.9375C80.0103 76.9374 79.8066 76.7712 79.8066 76.4844H79.1797ZM30.0625 38.5859V32.3799H24.7705V41.7412L16.0273 46.8975L18.6699 51.5859L24.7705 47.9854V75.0498H30.0547V63.6055H34.7051V75.0498H50.5518V47.9854H34.7051V59.2109H30.0547V44.8594L53.4961 30.3867L82.2227 47.9697H66.376V57.1426L62.2383 61.3779L66.376 65.6133V75.0127H82.2295V47.9473L88.3301 51.5488L90.9727 46.8604L53.5039 24.1133L30.0625 38.5859ZM55.8145 75.0273H61.0986V66.7529L58.0029 63.582H55.8145V75.0273ZM45.2676 69.6074H39.9824V53.3682H45.2676V69.6074ZM76.9453 69.6074H71.6602V53.3682H76.9453V69.6074ZM55.8145 59.1807H58.0029L61.0986 56.0107V47.9629H55.8145V59.1807Z" fill="#F59E11"/>
</svg>
