<svg width="71" height="70" viewBox="0 0 71 70" fill="none" xmlns="http://www.w3.org/2000/svg">
<path d="M27.8864 2.48355C32.1878 -0.908871 38.982 -0.796815 43.3307 2.64566C50.9937 8.71395 58.6851 14.7557 66.2282 20.9728C70.1665 24.221 71.5928 28.6446 70.7799 33.6808C69.4 42.1992 67.9414 50.7068 66.5035 59.2169C65.51 65.0904 60.0101 69.7656 54.0192 69.7931C47.8253 69.82 41.63 69.8 35.4362 69.8C29.4739 69.802 23.5076 69.678 17.5494 69.8351C11.4549 69.9961 5.41142 65.3948 4.38245 58.6593C3.07495 50.1017 1.50037 41.5859 0.178353 33.0324C-0.541596 28.37 0.920039 24.2217 4.52796 21.2277C12.2097 14.8554 20.0474 8.66356 27.8864 2.48355ZM35.4996 38.5753C31.3063 38.5757 27.8759 42.0037 27.8756 46.1945V52.3673C27.8765 56.5576 31.3066 59.9861 35.4996 59.9865C39.6924 59.9858 43.1238 56.5574 43.1246 52.3673V46.1945C43.1244 42.0039 39.6927 38.576 35.4996 38.5753Z" fill="black"/>
<path d="M36 31.9995C41.5228 31.9995 46 38.7152 46 46.9995C46 55.2838 41.5228 61.9995 36 61.9995C30.4772 61.9995 26 55.2838 26 46.9995C26 38.7152 30.4772 31.9995 36 31.9995Z" fill="black"/>
<path d="M38.7179 40.0643C38.7179 41.3609 38.7179 42.3537 38.7179 43.3465C38.7179 46.0767 38.7179 46.0531 41.4548 46.0446C42.1449 46.0424 42.3736 45.8734 42.3649 45.1609C42.3261 42.2424 42.3477 39.3218 42.3477 36.4033C42.3477 34.238 42.3455 34.2829 40.1823 34.2187C39.2592 34.1909 38.6683 34.4306 38.1593 35.2351C37.5468 36.2086 36.7467 37.0666 35.9897 38.0209C35.4699 37.3576 34.9242 36.8163 34.5662 36.1744C33.6906 34.6039 32.472 33.9705 30.6302 34.1909C29.7567 34.2958 29.5971 34.5269 29.6101 35.3078C29.6532 37.9781 29.6252 40.6484 29.6252 43.3187C29.6252 46.1152 29.6252 46.0938 32.4289 46.0467C33.0824 46.036 33.2959 45.8606 33.2787 45.2016C33.2334 43.584 33.2636 41.9664 33.2636 40.0215C34.1629 41.1127 34.866 41.9429 35.5411 42.7923C35.8516 43.1839 36.0759 43.2545 36.4253 42.8094C37.0982 41.9493 37.8207 41.1319 38.7179 40.0643Z" fill="#020203"/>
<path d="M21.002 31.8866C21.3772 32.0427 21.3557 31.7175 21.4031 31.5356C22.3844 27.6928 26.342 24.922 30.1421 25.0012C36.746 25.1381 43.3564 25.0525 49.9624 25.0226C50.7345 25.0183 51.071 25.1595 50.9912 26.0025C50.9114 26.8498 50.9135 27.7164 50.9912 28.5637C51.0667 29.3896 50.7582 29.5565 49.9732 29.5543C43.5462 29.5222 37.117 29.5372 30.6899 29.5372C27.5066 29.5372 25.682 31.2639 25.6109 34.4071C25.5591 36.7222 25.5138 39.0373 25.5677 41.3524C25.6238 43.7937 23.7 45.8905 21.002 46.0018C21.002 41.5813 21.002 37.1608 21.002 32.7424C21.0623 32.6975 21.168 32.6547 21.1723 32.6055C21.181 32.4985 21.0968 32.4771 21.002 32.5284C21.002 32.3145 21.002 32.1005 21.002 31.8866Z" fill="white"/>
<path d="M21.0022 50.4931C27.895 50.4931 34.7879 50.4952 41.6808 50.4931C44.4177 50.4931 46.4062 48.5375 46.4234 45.8073C46.4407 43.2782 46.363 40.7491 46.4558 38.2244C46.5399 35.9414 48.2674 34.4543 50.4867 34.0563C51.2027 33.928 50.9612 34.5271 50.9633 34.8437C50.9806 38.4041 50.972 41.9645 50.9741 45.527C50.9763 47.0697 50.7735 48.5717 50.0424 49.9561C48.4141 53.0478 45.936 54.9478 42.3257 54.9735C35.2171 55.0249 28.1086 54.9864 21 54.9864C21.0022 53.4865 21.0022 51.9909 21.0022 50.4931Z" fill="white"/>
<path d="M21.002 32.5286C21.0968 32.4772 21.181 32.4986 21.1723 32.6056C21.168 32.6548 21.0623 32.6976 21.002 32.7426C21.002 32.6698 21.002 32.5992 21.002 32.5286Z" fill="#020203"/>
<path d="M38.7179 40.0644C37.8186 41.1321 37.0961 41.9495 36.4253 42.8075C36.0781 43.2504 35.8516 43.1798 35.5411 42.7904C34.866 41.9409 34.1651 41.1107 33.2636 40.0195C33.2636 41.9623 33.2334 43.582 33.2787 45.1996C33.2959 45.8586 33.0824 46.0341 32.4289 46.0448C29.6252 46.0918 29.6252 46.1132 29.6252 43.3167C29.6252 40.6464 29.6511 37.9762 29.6101 35.3059C29.5971 34.5249 29.7567 34.2938 30.6302 34.189C32.472 33.9686 33.6906 34.6019 34.5662 36.1724C34.9242 36.8143 35.4699 37.3557 35.9897 38.0189C36.7467 37.0647 37.5468 36.2067 38.1615 35.2331C38.6705 34.4286 39.2614 34.189 40.1845 34.2168C42.3477 34.281 42.3498 34.2382 42.3498 36.4014C42.3498 39.3198 42.3261 42.2405 42.3671 45.1589C42.3757 45.8714 42.1471 46.0405 41.4569 46.0426C38.7201 46.0512 38.7201 46.0747 38.7201 43.3445C38.7179 42.3539 38.7179 41.3611 38.7179 40.0644Z" fill="white"/>
</svg>
