<svg width="107" height="118" viewBox="0 0 107 118" fill="none" xmlns="http://www.w3.org/2000/svg">
<rect x="10" y="15" width="85" height="80" fill="white"/>
<path d="M50.5 118C50.5 111.2 41.8333 107.833 37.5 107H63C53 108.6 50.5 115 50.5 118Z" fill="#F59E11"/>
<path d="M90.9492 0C99.8123 0 107 7.18671 107 16.0498V90.9492C107 99.8124 99.8124 107 90.9492 107H16.0508C7.18759 107 0 99.8124 0 90.9492V16.0498C0.000109382 7.18671 7.18766 0 16.0508 0H90.9492ZM59.1133 80.0098C59.0755 80.6062 58.992 80.9307 58.7051 81.1572H58.4189V82.916H59.4004V82.0557H62.042V82.916H63.0234V81.1572H62.4883V77.6768H59.2568L59.1133 80.0098ZM26.8467 77.5713C25.6576 77.5713 24.8796 78.3279 24.7871 79.6045L24.7773 79.8818C24.7774 81.3161 25.7822 82.1768 26.8467 82.1768C27.911 82.1766 28.6658 81.497 28.7715 80.5156H27.707C27.6013 80.9686 27.4197 81.2559 26.8232 81.2559C26.2346 81.2556 25.8653 80.7422 25.8652 79.8818C25.8652 79.0214 26.3704 78.5081 26.8232 78.5078C27.2761 78.5078 27.6239 78.7943 27.707 79.2471H28.7715C28.6883 78.2659 28.1146 77.5714 26.8467 77.5713ZM54.9531 77.5713C53.7642 77.5714 52.9871 78.328 52.8945 79.6045L52.8848 79.8818C52.8849 81.316 53.8888 82.1766 54.9531 82.1768C56.0176 82.1768 56.7732 81.4971 56.8789 80.5156H55.8145C55.7088 80.9686 55.5271 81.2559 54.9307 81.2559C54.3419 81.2558 53.9717 80.7423 53.9717 79.8818C53.9717 79.0212 54.4777 78.5079 54.9307 78.5078C55.3835 78.5078 55.7313 78.7943 55.8145 79.2471H56.8789C56.7958 78.2658 56.2213 77.5713 54.9531 77.5713ZM39.0918 77.5938C37.8009 77.5938 36.9854 78.4546 36.9854 79.8662C36.9854 81.278 37.8008 82.1387 39.0918 82.1387C40.3828 82.1387 41.1982 81.2553 41.1982 79.8662C41.1981 78.4772 40.3751 77.5938 39.0918 77.5938ZM75.6162 77.5938C74.3254 77.5938 73.5099 78.4546 73.5098 79.8662C73.5098 81.2779 74.3253 82.1386 75.6162 82.1387C76.9072 82.1387 77.7227 81.2553 77.7227 79.8662C77.7226 78.4772 76.8996 77.5938 75.6162 77.5938ZM64.5938 80.9238C64.4503 81.1348 64.224 81.1729 64.043 81.1729C63.8618 81.1728 63.7783 81.1504 63.7783 81.1504V82.0332C63.7631 82.0349 63.3881 82.0781 64.2168 82.0781C65.0623 82.0781 65.4701 81.6251 65.8174 80.7871L67.123 77.6543H65.9756L65.1982 79.8887H65.1758L64.3525 77.6543H63.2051L64.5938 80.9238ZM29.0586 78.5752H30.2432V82.0557H31.3311V78.5752H32.5156V77.6768H29.0586V78.5752ZM33.0977 82.0557H34.1846V80.7646H34.9014C35.845 80.7646 36.5019 80.176 36.502 79.2324C36.502 78.2887 35.8908 77.6768 34.9697 77.6768H33.0977V82.0557ZM41.7871 82.0557H42.8359L44.5723 79.376H44.6182V82.0557H45.6973V77.6768H44.6553L42.9121 80.3574H42.874V77.6768H41.7871V82.0557ZM46.3926 82.0557H47.3584V79.3154H47.3809L48.4229 81.9951H49.0576L50.0986 79.3154H50.1221V82.0557H51.0801V77.6768H49.835L48.748 80.4775H48.7324L47.6455 77.6768H46.3926V82.0557ZM67.584 82.0557H72.9062V77.6768H71.8262V81.1572H70.7773V77.6768H69.7129V81.1572H68.6709V77.6768H67.584V82.0557ZM78.3193 77.6768V82.0557H79.3613L81.0977 79.376H81.1201V82.0557H82.207V77.6768H81.165L79.4287 80.3574H79.4062V77.6768H78.3193ZM39.084 78.4922C39.6954 78.4922 40.0878 79.051 40.0879 79.8662C40.0879 80.6891 39.6955 81.2178 39.084 81.2178C38.4651 81.2176 38.0801 80.7041 38.0801 79.8662C38.0802 79.0285 38.4727 78.4923 39.084 78.4922ZM75.6084 78.4922C76.2198 78.4922 76.6132 79.051 76.6133 79.8662C76.6133 80.6891 76.2199 81.2178 75.6084 81.2178C74.9896 81.2176 74.6045 80.704 74.6045 79.8662C74.6046 79.0285 74.9972 78.4924 75.6084 78.4922ZM61.4004 81.1572C61.3758 81.1572 59.8265 81.1572 59.8232 81.1348C59.9892 80.931 60.0721 80.6063 60.0947 80.1084L60.1924 78.5752H61.4004V81.1572ZM34.6826 78.5381C35.1582 78.5381 35.4229 78.7794 35.4229 79.2324C35.4228 79.6853 35.1506 79.9268 34.6826 79.9268H34.1924V78.5381H34.6826ZM79.1797 76.4844C79.1797 77.0806 79.6327 77.45 80.2666 77.4502C80.9007 77.4502 81.3544 77.0807 81.3545 76.4844H80.7422C80.7421 76.7712 80.5386 76.9375 80.2744 76.9375C80.0103 76.9374 79.8067 76.7711 79.8066 76.4844H79.1797ZM30.0625 38.5859V32.3799H24.7705V41.7412L16.0273 46.8975L18.6699 51.5859L24.7705 47.9844V75.0498H30.0547V63.6045H34.7051V75.0498H50.5518V47.9844H34.7051V59.2109H30.0547V44.8594L53.4961 30.3867L82.2227 47.9697H66.376V57.1426L62.2383 61.3779L66.376 65.6133V75.0117H82.2295V47.9473L88.3301 51.5479L90.9727 46.8594L53.5039 24.1133L30.0625 38.5859ZM55.8145 75.0273H61.0986V66.7529L58.0029 63.582H55.8145V75.0273ZM45.2676 69.6064H39.9824V53.3672H45.2676V69.6064ZM76.9453 69.6064H71.6602V53.3672H76.9453V69.6064ZM55.8145 59.1807H58.0029L61.0986 56.0098V47.9619H55.8145V59.1807Z" fill="#F59E11"/>
</svg>
