<svg width="82" height="82" viewBox="0 0 82 82" fill="none" xmlns="http://www.w3.org/2000/svg">
<rect width="82" height="82" rx="20" fill="white"/>
<g clip-path="url(#clip0_238_459)">
<mask id="mask0_238_459" style="mask-type:luminance" maskUnits="userSpaceOnUse" x="15" y="15" width="53" height="53">
<path d="M55.1515 15H27.8485C20.7525 15 15 20.7525 15 27.8485V55.1515C15 62.2475 20.7525 68 27.8485 68H55.1515C62.2475 68 68 62.2475 68 55.1515V27.8485C68 20.7525 62.2475 15 55.1515 15Z" fill="white"/>
</mask>
<g mask="url(#mask0_238_459)">
<path d="M68 15H15V68H68V15Z" fill="#100943"/>
<path d="M68 41.5C82.6356 41.5 94.5 29.6356 94.5 15C94.5 0.36445 82.6356 -11.5 68 -11.5C53.3645 -11.5 41.5 0.36445 41.5 15C41.5 29.6356 53.3645 41.5 68 41.5Z" fill="#ED143B"/>
<path d="M47.738 40.29H32.08V34.0939H47.738C48.6527 34.0939 49.2886 34.2534 49.6078 34.5317C49.9269 34.8102 50.1246 35.3265 50.1246 36.0808V38.3056C50.1246 39.1003 49.9269 39.6167 49.6078 39.8951C49.2886 40.1734 48.6527 40.2924 47.738 40.2924V40.29ZM48.8123 28.2524H25.4395V54.75H32.08V46.1292H44.3177L50.1246 54.75H57.5607L51.1583 46.0888C53.5187 45.739 54.5786 45.0157 55.4527 43.8235C56.3268 42.6314 56.7653 40.7255 56.7653 38.1818V36.195C56.7653 34.6864 56.6055 33.4943 56.3268 32.5806C56.0482 31.6669 55.572 30.8722 54.8954 30.1583C54.1809 29.4826 53.3853 29.0067 52.4302 28.6878C51.4751 28.4094 50.2818 28.25 48.8123 28.25V28.2524Z" fill="white"/>
</g>
</g>
<defs>
<clipPath id="clip0_238_459">
<rect width="53" height="53" fill="white" transform="translate(15 15)"/>
</clipPath>
</defs>
</svg>
