<svg width="42" height="42" viewBox="0 0 42 42" fill="none" xmlns="http://www.w3.org/2000/svg">
<circle cx="21" cy="21" r="20.5" stroke="black"/>
<path d="M22.8541 18.2201C22.8541 18.9344 22.8541 19.6495 22.8541 20.3637C22.8541 20.4493 22.8524 20.5348 22.8558 20.6195C22.8653 20.8684 22.8748 21.1438 23.1299 21.2602C23.3824 21.3757 23.6073 21.214 23.8055 21.0617C24.2941 20.6845 24.6785 20.2115 25.0396 19.7196C25.9229 18.5169 26.6425 17.2202 27.2276 15.8541C27.4861 15.251 27.886 14.979 28.5418 15.0013C29.2605 15.0261 29.9818 15.0038 30.7014 15.0081C31.4762 15.0124 31.683 15.2972 31.4512 16.0363C31.2969 16.5273 31.0548 16.9789 30.804 17.4263C30.1034 18.676 29.3071 19.865 28.4918 21.0421C28.3764 21.2089 28.2643 21.3782 28.154 21.5484C27.9774 21.823 27.9955 22.0873 28.1902 22.35C28.3436 22.5578 28.5177 22.7451 28.703 22.9231C29.6768 23.8606 30.5834 24.8563 31.3788 25.9486C31.6304 26.2942 31.8665 26.6526 31.9682 27.076C32.0846 27.5584 31.8795 27.9006 31.3848 27.9434C30.4213 28.0264 29.4536 28.0084 28.4884 27.9519C28.0747 27.928 27.7895 27.6466 27.5206 27.366C26.8536 26.6714 26.2323 25.9332 25.5127 25.2891C25.1774 24.9888 24.8336 24.6989 24.4544 24.4542C24.2562 24.3259 24.0494 24.2139 23.821 24.1446C23.1704 23.9487 22.8662 24.1574 22.8576 24.8203C22.8489 25.5132 22.855 26.2069 22.8541 26.9007C22.8524 27.6175 22.6412 27.8536 21.9243 27.934C20.9496 28.0435 19.993 27.9451 19.0606 27.65C17.1466 27.0444 15.5988 25.9016 14.3751 24.3507C12.5973 22.0968 11.1512 19.6503 10.2584 16.9088C10.136 16.5333 10.0257 16.1543 10.0025 15.7574C9.97575 15.3041 10.1653 15.0389 10.6143 15.0261C11.5485 14.9995 12.4835 15.0021 13.4177 15.0244C13.846 15.0346 14.0718 15.3477 14.2165 15.7172C14.4699 16.3622 14.706 17.014 14.9818 17.6487C15.5661 18.9925 16.2512 20.2825 17.169 21.4372C17.3956 21.7229 17.6386 21.995 17.9506 22.1926C18.3375 22.4381 18.6168 22.3217 18.6952 21.8786C18.7228 21.7221 18.7245 21.5604 18.7245 21.4005C18.7271 20.291 18.7228 19.1816 18.7271 18.073C18.7297 17.3433 18.5435 16.683 18.054 16.1227C18.0049 16.0662 17.9601 16.0063 17.917 15.9448C17.78 15.7497 17.711 15.5419 17.8369 15.3169C17.9575 15.1005 18.1557 15.0081 18.3996 15.0072C18.9046 15.0055 19.4096 15.0064 19.9146 15.0064C20.6342 15.0064 21.3546 15.0047 22.0742 15.0072C22.6257 15.009 22.8395 15.2048 22.8481 15.7566C22.8601 16.5778 22.8515 17.3989 22.8515 18.2201C22.8524 18.2201 22.8532 18.2201 22.8541 18.2201Z" fill="#212121"/>
</svg>
