<svg width="53" height="53" viewBox="0 0 53 53" fill="none" xmlns="http://www.w3.org/2000/svg">
<path d="M53.0011 16.7872C53.0011 23.3403 53.0011 29.8934 53.0011 36.4465C52.8144 36.5917 52.9098 36.7963 52.9001 36.9733C52.7784 39.3476 52.6332 41.7177 52.069 44.0408C51.0484 48.2362 48.4915 50.9216 44.2862 52.0057C42.4774 52.4717 40.6326 52.6667 38.7754 52.8064C37.9983 52.8645 37.21 52.7953 36.4453 53.0027C29.7881 53.0027 23.1324 53.0027 16.4752 53.0027C16.3328 52.8119 16.1267 52.9101 15.9511 52.9004C13.7482 52.7787 11.5481 52.6418 9.38386 52.1689C4.85218 51.1788 1.99102 48.4879 0.926204 43.9302C0.410392 41.7191 0.21679 39.472 0.140732 37.2167C-0.0694652 31.0466 0.00244423 24.8738 0.0605249 18.7037C0.0895652 15.5855 0.190515 12.4659 0.854294 9.39611C1.82645 4.90339 4.48157 2.04376 8.98697 0.955495C11.2784 0.402375 13.6141 0.204634 15.9567 0.141025C22.9886 -0.0484185 30.0232 -0.0456529 37.0551 0.13826C39.3991 0.199103 41.7334 0.398226 44.0248 0.949964C48.161 1.94558 50.8424 4.44845 51.9639 8.57888C52.477 10.4678 52.6636 12.4023 52.8102 14.3465C52.8697 15.1596 52.8019 15.9838 53.0011 16.7872ZM29.8255 21.7749C29.8241 21.7749 29.8227 21.7749 29.8213 21.7749C29.8213 20.4475 29.8366 19.12 29.8158 17.7925C29.802 16.9006 29.459 16.5853 28.574 16.5811C27.4193 16.577 26.2632 16.5798 25.1085 16.5798C24.2981 16.5798 23.4878 16.5784 22.6774 16.5811C22.2874 16.5825 21.9694 16.7319 21.7744 17.0817C21.5725 17.4454 21.6831 17.7814 21.903 18.0967C21.9722 18.1963 22.0441 18.2931 22.1229 18.3843C22.9084 19.2901 23.2084 20.3576 23.2029 21.5371C23.196 23.3306 23.2029 25.1241 23.1988 26.9162C23.1988 27.1734 23.196 27.4361 23.1517 27.6892C23.0259 28.4041 22.5779 28.5935 21.9569 28.1967C21.4563 27.8773 21.0664 27.4375 20.7027 26.9757C19.2299 25.1075 18.1305 23.0236 17.1929 20.8512C16.7504 19.8252 16.3715 18.7701 15.9649 17.7289C15.7312 17.1315 15.3703 16.6254 14.683 16.6088C13.184 16.5715 11.6822 16.5673 10.1845 16.6116C9.46545 16.6323 9.16121 17.061 9.2027 17.7939C9.24004 18.4355 9.41705 19.0494 9.61341 19.6551C11.0461 24.087 13.3651 28.0432 16.2194 31.6855C18.1831 34.1939 20.6667 36.0413 23.7381 37.0189C25.2357 37.496 26.7693 37.655 28.3334 37.478C29.4839 37.3481 29.8227 36.9664 29.8255 35.8076C29.8283 34.6862 29.8186 33.5661 29.831 32.4446C29.8435 31.373 30.333 31.0356 31.3771 31.3522C31.7435 31.4629 32.074 31.6454 32.3935 31.8528C33.0019 32.2483 33.5537 32.7171 34.0917 33.2024C35.2464 34.2437 36.2434 35.437 37.3137 36.5599C37.7452 37.012 38.2043 37.4684 38.8667 37.5071C40.4155 37.5983 41.9685 37.6274 43.5145 37.4933C44.3097 37.4241 44.6374 36.871 44.4508 36.0911C44.2862 35.4066 43.9087 34.8272 43.5049 34.2686C42.2285 32.5027 40.7737 30.8931 39.211 29.3776C38.9137 29.09 38.6344 28.7871 38.3882 28.4511C38.0757 28.0266 38.0467 27.5993 38.3302 27.1554C38.5058 26.8803 38.6869 26.6065 38.8722 26.3368C40.1804 24.4341 41.4582 22.512 42.5825 20.4917C42.9849 19.7685 43.3735 19.0384 43.621 18.2447C43.993 17.0499 43.6611 16.5908 42.4179 16.5825C41.2632 16.5756 40.1058 16.6116 38.9524 16.5715C37.9001 16.5355 37.2584 16.9752 36.8436 17.9501C35.9046 20.1585 34.7499 22.2548 33.3325 24.199C32.753 24.9941 32.1363 25.7602 31.3522 26.3686C31.0355 26.6148 30.6746 26.8761 30.268 26.6894C29.8587 26.5014 29.8435 26.0561 29.8283 25.6537C29.8227 25.5154 29.8255 25.3785 29.8255 25.2402C29.8255 24.0856 29.8255 22.9296 29.8255 21.7749Z" fill="#2787F4"/>
</svg>
