<svg width="24" height="36" viewBox="0 0 24 36" fill="none" xmlns="http://www.w3.org/2000/svg">
    <path d="M14.4491 13.7642C16.0759 14.2821 17.6356 14.7795 19.1953 15.2769C20.3276 15.639 21.4626 15.9956 22.5935 16.3632C24.1288 16.8633 24.4662 18.2325 23.314 19.3365C17.7343 24.6765 12.1517 30.0125 6.56343 35.3429C5.45407 36.4019 3.90868 36.1505 3.5427 34.8127C3.42262 34.3755 3.55271 33.7906 3.76858 33.3684C5.56844 29.8512 7.41404 26.3545 9.24678 22.8524C9.3397 22.6747 9.42405 22.4944 9.54413 22.2539C9.33684 22.176 9.15386 22.0995 8.96515 22.038C6.46622 21.24 3.96443 20.4461 1.46694 19.6453C-0.148503 19.1275 -0.478739 17.7761 0.730696 16.6201C6.28323 11.3074 11.8401 5.99743 17.3983 0.69021C18.5248 -0.385171 19.973 -0.173374 20.4705 1.12474C20.6792 1.66858 20.5034 2.15639 20.2532 2.63601C18.4219 6.13817 16.5892 9.64034 14.7579 13.1439C14.6649 13.3201 14.5792 13.5019 14.4491 13.7642Z" fill="#F59E11"/>
</svg>
