<svg width="43" height="21" viewBox="0 0 43 21" fill="none" xmlns="http://www.w3.org/2000/svg">
    <path d="M0 9.41826C0.106183 8.93528 0.189237 8.44604 0.323806 7.97038C1.51075 3.75846 4.25889 1.10628 8.55143 0.230237C12.1995 -0.514088 15.3997 0.568947 18.069 3.15109C19.2108 4.25607 20.323 5.39138 21.5909 6.65527C21.6761 6.49218 21.7192 6.32597 21.8243 6.22247C23.1269 4.94186 24.3643 3.58179 25.7605 2.41094C30.033 -1.16955 36.4534 -0.680306 40.2077 3.43543C43.757 7.32537 43.9609 13.0521 40.5883 17.127C38.1576 20.0646 34.9395 21.3222 31.1369 20.9083C28.7 20.6427 26.6099 19.5691 24.8753 17.8295C23.763 16.7141 22.6433 15.607 21.3828 14.3525C21.2997 14.5125 21.2577 14.6798 21.1525 14.7833C19.872 16.0471 18.6515 17.3811 17.2816 18.5425C13.2824 21.9327 7.3708 21.7874 3.48197 18.2749C1.557 16.5364 0.425784 14.3797 0.0820029 11.8133C0.0714897 11.7359 0.0273343 11.6627 0 11.5885C0 10.8651 0 10.1417 0 9.41826ZM17.5066 10.5902C16.2303 9.29595 15.0559 8.06656 13.8364 6.88421C12.927 6.00294 11.7811 5.61091 10.5227 5.60673C7.50957 5.59837 5.22926 8.28923 5.69289 11.278C6.23012 14.7477 10.2924 16.6252 13.1636 14.5836C14.7584 13.4493 16.0747 11.9272 17.5066 10.5902ZM25.5082 10.3873C26.8086 11.7223 28.005 13.0092 29.2677 14.2261C30.134 15.0613 31.2536 15.3979 32.449 15.4063C35.4515 15.4272 37.7539 12.7155 37.2861 9.73711C36.7373 6.24129 32.6718 4.37839 29.7839 6.44305C28.2027 7.57417 26.8969 9.08687 25.5082 10.3873Z" fill="#F59E11"/>
</svg>
