<svg width="43" height="28" viewBox="0 0 43 28" fill="none" xmlns="http://www.w3.org/2000/svg">
    <path d="M21.0711 26.8548C21.6321 26.5998 21.8616 26.0898 22.0401 25.5543C23.672 20.6074 25.8905 15.9156 28.9759 11.6827C29.3329 11.1982 29.7154 10.7392 30.0214 10.2037C29.8174 10.3312 29.6134 10.4332 29.4349 10.5607C26.9615 12.1927 25.0235 14.3091 23.366 16.7315C21.6576 19.2305 20.3061 21.9079 19.3116 24.7638C19.2351 24.9678 19.1841 25.1463 19.0566 25.3758C18.9801 24.6618 18.9036 23.9989 18.8527 23.3104C18.6232 19.6385 18.8527 16.0431 19.8981 12.4986C20.8926 9.18373 22.5246 6.2768 25.202 4.03286C27.3439 2.2224 29.8174 1.12593 32.5458 0.539442C35.6057 -0.123542 38.6657 -0.123542 41.7511 0.258948C42.4396 0.335447 43.0006 0.921932 43.0006 1.61042C42.8476 8.06176 41.3176 14.0286 37.2887 19.1795C34.2288 23.0554 30.1744 25.3503 25.3805 26.3703C23.978 26.6763 22.5246 26.8293 21.1221 27.0333C21.0966 26.9823 21.0711 26.9313 21.0711 26.8548Z" fill="#F59E11"/>
    <path d="M19.7198 7.95966C18.2154 10.8411 17.4249 13.8755 17.0679 17.0884C14.161 16.145 11.56 14.6915 9.03559 13.034C9.01009 13.0595 8.98459 13.085 8.95909 13.136C9.52008 13.8245 10.0556 14.5385 10.6421 15.2015C12.3505 17.1649 14.2885 18.8734 16.6089 20.1229C16.7364 20.1994 16.8639 20.3524 16.8639 20.4799C16.9914 22.2138 17.0934 23.9733 17.1954 25.7072C17.1954 25.7327 17.1699 25.7582 17.1444 25.8857C15.8949 25.6307 14.5945 25.4267 13.345 25.1207C10.1576 24.3048 7.25063 22.9023 4.87919 20.5309C2.50775 18.1594 1.13078 15.2525 0.4678 12.0141C-0.118686 9.13263 -0.0931863 6.2002 0.212806 3.29327C0.314804 2.3498 0.87579 1.78881 1.79377 1.81431C7.81162 1.99281 13.447 3.42077 18.4194 6.96518C18.8528 7.27118 19.2608 7.60267 19.7198 7.95966Z" fill="#F59E11"/>
</svg>
